# xmcd
#
# Track frame offsets: 
#        150
#        12645
#        24355
#        38765
#        53957
#        65915
#        80180
#        94150
#        105750
#        119090
#
# Disc length: 1771 seconds
#
# Revision: 0
# Processed by: cddbd v1.5.1PL2 Copyright (c) Steve Scherf et al.
# Submitted via: ExactAudioCopy v0.95a5
#
DISCID=8606e90a
DTITLE=Various Artist - Kick Up Your Heels
DYEAR=1996
DGENRE=Country
TTITLE0=Daryle Singletary - Too Much Fun
TTITLE1=Mark Chesnutt - Goin' Through The Big D
TTITLE2=Radney Foster - Just Call Me Lonesome
TTITLE3=Boy Howdy - They Don't Make Them Like That Anymore
TTITLE4=Tanya Tucker - It's A Little Too Late
TTITLE5=Sammy Kershaw - National Working Woman's Holiday
TTITLE6=Hal Ketchum - Hearts Are Gonna Roll
TTITLE7=Larry Stewart - Alright Already
TTITLE8=Marty Stuart - Burn Me Down
TTITLE9=Diamond Rio - Norma Jean Riley
EXTD=
EXTT0=
EXTT1=
EXTT2=
EXTT3=
EXTT4=
EXTT5=
EXTT6=
EXTT7=
EXTT8=
EXTT9=
PLAYORDER=
